<svg width="20" height="20" viewBox="0 0 20 20" fill="none" xmlns="http://www.w3.org/2000/svg">
<path d="M7.5 4.16667H5.83333C5.3731 4.16667 5 4.53976 5 5V15C5 15.4602 5.3731 15.8333 5.83333 15.8333H7.5C7.96024 15.8333 8.33333 15.4602 8.33333 15V5C8.33333 4.53976 7.96024 4.16667 7.5 4.16667Z" fill="white"/>
<path d="M14.1666 4.16667H12.5C12.0397 4.16667 11.6666 4.53976 11.6666 5V15C11.6666 15.4602 12.0397 15.8333 12.5 15.8333H14.1666C14.6269 15.8333 15 15.4602 15 15V5C15 4.53976 14.6269 4.16667 14.1666 4.16667Z" fill="white"/>
</svg>
