<svg width="20" height="20" viewBox="0 0 20 20" fill="none" xmlns="http://www.w3.org/2000/svg">
<path d="M12.5 6.66667C13.0175 7.05478 13.4375 7.55805 13.7268 8.13661C14.0161 8.71517 14.1667 9.35315 14.1667 10C14.1667 10.6469 14.0161 11.2848 13.7268 11.8634C13.4375 12.442 13.0175 12.9452 12.5 13.3333" stroke="white" stroke-width="0.833333" stroke-linecap="round" stroke-linejoin="round"/>
<path d="M14.75 4.16667C15.62 4.86971 16.3217 5.75844 16.8037 6.76777C17.2858 7.7771 17.536 8.88147 17.536 10C17.536 11.1185 17.2858 12.2229 16.8037 13.2322C16.3217 14.2416 15.62 15.1303 14.75 15.8333" stroke="white" stroke-width="0.833333" stroke-linecap="round" stroke-linejoin="round"/>
<path d="M5.30027 12.8861C5.11081 12.6425 4.81951 12.5 4.51092 12.5H3.33333C3.11232 12.5 2.90036 12.4122 2.74408 12.2559C2.5878 12.0996 2.5 11.8877 2.5 11.6667V8.33333C2.5 8.11232 2.5878 7.90036 2.74408 7.74408C2.90036 7.5878 3.11232 7.5 3.33333 7.5H4.51092C4.81951 7.5 5.11081 7.35753 5.30027 7.11394L7.85953 3.82346C7.89754 3.77459 7.92917 3.72105 7.96489 3.67049C8.03797 3.56705 8.13943 3.486 8.25791 3.43774C8.40528 3.37772 8.56925 3.37238 8.72021 3.4227C8.87117 3.47302 8.99915 3.57568 9.08103 3.71212C9.14839 3.82436 9.18089 3.95338 9.17548 4.08296C9.17314 4.13896 9.16667 4.19484 9.16667 4.25089V15.7491C9.16667 15.8052 9.17314 15.861 9.17548 15.917C9.18089 16.0466 9.14839 16.1756 9.08103 16.2879C8.99915 16.4243 8.87117 16.527 8.72021 16.5773C8.56925 16.6276 8.40528 16.6223 8.25791 16.5623C8.13943 16.514 8.03797 16.4329 7.96489 16.3295C7.92917 16.2789 7.89754 16.2254 7.85953 16.1765L5.30027 12.8861Z" fill="white"/>
</svg>
